<?xml version="1.0" standalone="no"?>
<!DOCTYPE svg PUBLIC "-//W3C//DTD SVG 20010904//EN"
 "http://www.w3.org/TR/2001/REC-SVG-20010904/DTD/svg10.dtd">
<svg version="1.0" xmlns="http://www.w3.org/2000/svg"
 width="100.000000pt" height="32.000000pt" viewBox="0 0 100.000000 32.000000"
 preserveAspectRatio="xMidYMid meet">

<g transform="translate(0.000000,32.000000) scale(0.100000,-0.100000)"
fill="red" stroke="none">
<path d="M167 306 c-91 -33 -158 -106 -136 -148 15 -28 55 -21 136 23 73 40
98 44 109 14 11 -27 -6 -65 -47 -109 -39 -43 -94 -75 -106 -62 -4 3 6 19 20
34 33 35 34 52 3 52 -32 0 -68 -45 -64 -79 6 -52 85 -35 167 36 50 42 81 99
81 148 0 49 -15 74 -55 91 -42 17 -59 17 -108 0z"/>
<path d="M502 223 c2 -10 10 -18 18 -18 8 0 16 8 18 18 2 12 -3 17 -18 17 -15
0 -20 -5 -18 -17z"/>
<path d="M680 130 c0 -88 1 -90 25 -96 32 -8 46 4 22 17 -23 13 -25 109 -2
109 8 0 15 4 15 9 0 5 -7 11 -15 15 -8 3 -15 12 -15 21 0 8 -7 15 -15 15 -12
0 -15 -17 -15 -90z"/>
<path d="M912 128 l3 -93 28 -3 c29 -4 37 12 12 22 -12 4 -15 24 -15 86 0 65
-3 80 -15 80 -13 0 -15 -15 -13 -92z"/>
<path d="M382 179 c-32 -12 -20 -27 18 -21 23 3 30 0 30 -12 0 -10 -9 -16 -23
-16 -27 0 -57 -28 -57 -53 0 -39 78 -65 108 -35 16 16 16 113 0 126 -21 16
-52 21 -76 11z m48 -100 c0 -24 -4 -30 -17 -27 -22 4 -30 38 -11 49 22 15 28
10 28 -22z"/>
<path d="M500 105 c0 -68 2 -75 20 -75 18 0 20 7 20 75 0 68 -2 75 -20 75 -18
0 -20 -7 -20 -75z"/>
<path d="M588 169 c-14 -8 -18 -24 -18 -74 0 -58 2 -65 20 -65 18 0 20 7 20
60 0 55 2 61 25 70 14 5 25 12 25 15 0 9 -54 5 -72 -6z"/>
<path d="M777 162 c-24 -26 -22 -94 2 -116 22 -20 82 -19 89 2 3 9 -3 11 -22
6 -28 -7 -56 9 -56 32 0 10 13 14 39 14 48 0 56 11 39 47 -17 35 -66 43 -91
15z m61 -25 c2 -11 -3 -17 -16 -17 -26 0 -34 11 -20 27 14 17 32 12 36 -10z"/>
</g>
</svg>
